# xmcd CD database file
#
# Track frame offsets:
#	150
#	12758
#	59198
#	92717
#	116702
#	143578
#	163589
#	187473
#	214077
#	227797
#	241308
#	248317
#	256994
#
# Disc length: 3522 seconds
#
# Revision: 0
# Processed by: cddbd v1.5.2PL0 Copyright (c) Steve Scherf et al.
# Submitted via: CDex 1.51
#
DISCID=b50dc00d
DTITLE=Ananda - Kirtan
DYEAR=1900
DGENRE=New Age
TTITLE0=Gajananam mantra
TTITLE1=Jaya Ganesha
TTITLE2=Bhajo Radhe Krishna
TTITLE3=Yamuna Teera Vihari
TTITLE4=Radhe Bolo
TTITLE5=Chidanand
TTITLE6=Thumi Bhaja Re Mana
TTITLE7=Siva Siva Mahadeva
TTITLE8=Arati
TTITLE9=Ganga Arati
TTITLE10=Twamewa
TTITLE11=Om Trayambakam
TTITLE12=Fohász
EXTD=
EXTT0=
EXTT1=
EXTT2=
EXTT3=
EXTT4=
EXTT5=
EXTT6=
EXTT7=
EXTT8=
EXTT9=
EXTT10=
EXTT11=
EXTT12=
PLAYORDER=
